# xmcd
# 
# Track frame offsets:
#     150
#     21517
#     42455
#     64397
#     88537
#     106152
#     131385
#     147017
#     172547
#     190760
#     206710
# 
# Disc length: 3088
# 
# Revision: 7
# Processed by: cddbd v1.5.2PL0 Copyright (c) Steve Scherf et al.
# Submitted via: fre:ac v1.0.31
# 
DISCID=920c0e0b
DTITLE=B.B. King - King Of The Blues: 1989
DYEAR=1988
DGENRE=Blues
TTITLE0=(You've Become A) Habit To Me
TTITLE1=Drowning In The Sea Of Love
TTITLE2=Can't Get Enough
TTITLE3=Standing On The Edge
TTITLE4=Go On
TTITLE5=Let's Straighten It Out
TTITLE6=Change In Your Lovin'
TTITLE7=Undercover Man
TTITLE8=Lay Another Log On The Fire
TTITLE9=Business With My Baby Tonight
TTITLE10=Take Off Your Shoes
EXTD=
EXTT0=
EXTT1=
EXTT2=
EXTT3=
EXTT4=
EXTT5=
EXTT6=
EXTT7=
EXTT8=
EXTT9=
EXTT10=
PLAYORDER=
